<svg xmlns="http://www.w3.org/2000/svg" viewBox="0 0 374.854 288.572">
  <defs>
    <style>
      .cls-1 {
        fill: #78ce44;
      }
    </style>
  </defs>
  <g id="glayer" transform="translate(0 -0.5)">
    <path id="Exclusion_1" data-name="Exclusion 1" class="cls-1" d="M131.486,307.572h0c-26.6,0-57.282-5.239-91.207-15.57H194.854l0,.006c-.476.408-4.925,4.093-14.506,7.78a108.693,108.693,0,0,1-19.636,5.352A165.474,165.474,0,0,1,131.486,307.572ZM-118.541,292H-180l.163-.054.337-.108V292h60.959ZM194.5,292H40.272C6.346,281.668-30.069,276.43-67.962,276.43a422.318,422.318,0,0,0-42.583,2.175c-11.55,1.175-23.073,2.827-34.25,4.91A305.106,305.106,0,0,0-179.5,291.84V19h374V292Z" transform="translate(180 -18.5)"/>
  </g>
</svg>
